<svg height="512pt" viewBox="0 -8 512 511" width="512pt" xmlns="http://www.w3.org/2000/svg"><path d="m148.476562 380.488281c-4.34375-7.054687-13.582031-9.253906-20.636718-4.910156-7.054688 4.34375-9.253906 13.582031-4.910156 20.636719l16.691406 27.113281c-30.769532-7.835937-56.832032-18.628906-76.28125-31.691406-15.207032-10.214844-33.339844-26.59375-33.339844-46.59375 0-8.253907 3.289062-16.691407 9.496094-24.933594-5.410156-10.351563-8.488282-22.101563-8.496094-34.5625-20.21875 17.800781-31 38.167969-31 59.496094 0 26.292969 16.117188 51.015625 46.613281 71.496093 22.277344 14.964844 51.605469 27.199219 85.816407 35.90625l-29.359376 15.050782c-7.371093 3.777344-10.285156 12.820312-6.503906 20.191406 2.65625 5.183594 7.910156 8.160156 13.359375 8.160156 2.300781 0 4.640625-.53125 6.832031-1.65625l62.882813-32.234375c3.722656-1.910156 6.476563-5.28125 7.601563-9.3125 1.128906-4.027343.523437-8.339843-1.671876-11.902343zm0 0"/><path d="m481 285.558594c-.011719 12.460937-3.089844 24.214844-8.5 34.5625 6.207031 8.242187 9.5 16.683594 9.5 24.925781 0 20.320313-19.738281 41.636719-54.148438 58.476563-38.527343 18.851562-91.53125 30.597656-149.25 33.082031-8.277343.359375-14.695312 7.355469-14.339843 15.632812.34375 8.058594 6.984375 14.355469 14.972656 14.355469.21875 0 .4375-.003906.65625-.015625 61.757813-2.65625 118.988281-15.480469 161.144531-36.109375 45.761719-22.394531 70.964844-52.730469 70.964844-85.425781 0-21.304688-10.789062-41.683594-31-59.484375zm0 0"/><path d="m243 139.589844v51l34-25.5zm0 0"/><path d="m106 330.5h300c24.8125 0 45-20.1875 45-45v-240c0-24.8125-20.1875-45-45-45h-300c-24.8125 0-45 20.1875-45 45v240c0 24.816406 20.1875 45 45 45zm290-270.410156h10c8.285156 0 15 6.714844 15 15s-6.714844 15-15 15h-10c-8.285156 0-15-6.714844-15-15s6.714844-15 15-15zm0 60h10c8.285156 0 15 6.71875 15 15 0 8.285156-6.714844 15-15 15h-10c-8.285156 0-15-6.714844-15-15 0-8.28125 6.714844-15 15-15zm0 60h10c8.285156 0 15 6.714844 15 15s-6.714844 15-15 15h-10c-8.285156 0-15-6.714844-15-15s6.714844-15 15-15zm0 60h10c8.285156 0 15 6.714844 15 15s-6.714844 15-15 15h-10c-8.285156 0-15-6.714844-15-15s6.714844-15 15-15zm-183-130.5c0-5.683594 3.210938-10.875 8.292969-13.414063 5.082031-2.542969 11.164062-1.996093 15.707031 1.414063l74 55.5c3.777344 2.832031 6 7.277344 6 12s-2.222656 9.167968-6 12l-74 55.5c-2.644531 1.984375-5.8125 3-9.003906 3-2.285156 0-4.582032-.523438-6.703125-1.582032-5.082031-2.542968-8.292969-7.734374-8.292969-13.417968zm-106.90625-49.40625h10c8.285156 0 15 6.714844 15 15s-6.714844 15-15 15h-10c-8.285156 0-15-6.714844-15-15s6.714844-15 15-15zm0 60h10c8.285156 0 15 6.71875 15 15 0 8.285156-6.714844 15-15 15h-10c-8.285156 0-15-6.714844-15-15 0-8.28125 6.714844-15 15-15zm0 60h10c8.285156 0 15 6.714844 15 15s-6.714844 15-15 15h-10c-8.285156 0-15-6.714844-15-15s6.714844-15 15-15zm0 60h10c8.285156 0 15 6.714844 15 15s-6.714844 15-15 15h-10c-8.285156 0-15-6.714844-15-15s6.714844-15 15-15zm0 0"/></svg>