<svg height="496pt" viewBox="0 0 496 496.02902" width="496pt" xmlns="http://www.w3.org/2000/svg"><path d="m458.183594 300.101562c-21.140625-22.988281-50.941406-36.070312-82.167969-36.070312-31.230469 0-61.03125 13.082031-82.167969 36.070312 21.183594 22.90625 50.964844 35.929688 82.167969 35.929688 31.199219 0 60.984375-13.023438 82.167969-35.929688zm0 0" fill="#00b6bd"/><path d="m392.015625 456.027344c-.015625 10.175781 1.378906 20.304687 4.140625 30.097656 31.003906-5.570312 58.210938-23.984375 74.902344-50.695312 16.691406-26.714844 21.316406-59.238282 12.730468-89.542969-53.160156 9.757812-91.769531 56.09375-91.773437 110.140625zm0 0" fill="#00b6bd"/><path d="m483.789062 345.886719c-4.773437-17.078125-13.550781-32.773438-25.597656-45.785157-21.183594 22.90625-50.96875 35.929688-82.167968 35.929688-31.203126 0-60.984376-13.023438-82.167969-35.929688-12.433594 13.429688-21.371094 29.710938-26.023438 47.40625 28.871094 7.425782 53.597657 26.042969 68.707031 51.742188 15.113282 25.695312 19.371094 56.355469 11.828126 85.195312 15.605468 4.121094 31.933593 4.695313 47.789062 1.679688-2.761719-9.792969-4.15625-19.921875-4.140625-30.097656.003906-54.046875 38.613281-100.382813 91.773437-110.140625zm0 0" fill="#ff5023"/><path d="m267.820312 347.507812c-7.742187 28.851563-3.574218 59.605469 11.570313 85.351563s39.996094 44.335937 68.976563 51.585937c7.542968-28.84375 3.285156-59.5-11.828126-85.199218-15.117187-25.695313-39.84375-44.3125-68.71875-51.738282zm0 0" fill="#00b6bd"/><path d="m144.015625 229.390625c42.652344-9.394531 75.96875-42.707031 85.359375-85.363281h-85.359375zm0 0" fill="#64c37d"/><path d="m96.015625 144.027344v85.363281c15.804687 3.519531 32.191406 3.519531 48 0v-85.363281zm0 0" fill="#ffda44"/><path d="m229.375 96.027344c-9.390625-42.652344-42.707031-75.96875-85.359375-85.359375v85.359375zm0 0" fill="#64c37d"/><path d="m144.015625 96.027344v-85.359375c-15.808594-3.519531-32.195313-3.519531-48 0v85.359375zm0 0" fill="#ffda44"/><path d="m144.015625 144.027344h85.359375c3.519531-15.804688 3.519531-32.191406 0-48h-85.359375zm0 0" fill="#ffda44"/><path d="m10.652344 144.027344c9.394531 42.65625 42.707031 75.96875 85.363281 85.363281v-85.363281zm0 0" fill="#64c37d"/><path d="m96.015625 10.667969c-42.65625 9.390625-75.96875 42.707031-85.363281 85.359375h85.363281zm0 0" fill="#64c37d"/><path d="m96.015625 144.027344v-48h-85.363281c-3.519532 15.808594-3.519532 32.195312 0 48zm0 0" fill="#ffda44"/><path d="m96.015625 96.027344h48v48h-48zm0 0" fill="#ffda44"/><path d="m487.6875 113.574219c-.441406-8.015625-1.746094-15.957031-3.898438-23.6875-53.160156 9.757812-91.769531 56.09375-91.773437 110.140625-.015625 10.175781 1.378906 20.304687 4.140625 30.097656 7.910156-1.410156 15.640625-3.675781 23.058594-6.753906-2.125-7.597656-3.203125-15.453125-3.199219-23.34375.007813-42.296875 30.105469-78.605469 71.671875-86.453125zm0 0" fill="#78b9eb"/><path d="m483.789062 89.886719c-4.773437-17.078125-13.550781-32.773438-25.597656-45.785157-21.171875 22.929688-50.96875 35.960938-82.175781 35.925782-31.207031.03125-61.003906-12.996094-82.167969-35.925782-12.433594 13.429688-21.371094 29.710938-26.027344 47.40625 28.875 7.425782 53.601563 26.042969 68.71875 51.738282 15.113282 25.699218 19.371094 56.355468 11.828126 85.199218 15.605468 4.121094 31.933593 4.695313 47.789062 1.679688-2.761719-9.792969-4.15625-19.921875-4.140625-30.097656.003906-54.046875 38.613281-100.382813 91.773437-110.140625zm0 0" fill="#a0815c"/><path d="m416.015625 200.027344c-.003906 7.890625 1.074219 15.746094 3.199219 23.34375 41.675781-17.421875 68.804687-58.171875 68.800781-103.34375 0-2.183594-.203125-4.308594-.328125-6.453125-41.566406 7.847656-71.664062 44.15625-71.671875 86.453125zm0 0" fill="#64c37d"/><path d="m440.148438 28.292969c-38.488282-27.019531-89.78125-27.019531-128.269532 0 16.632813 17.699219 39.84375 27.738281 64.136719 27.734375 24.289063.003906 47.5-10.035156 64.132813-27.734375zm0 0" fill="#64c37d"/><path d="m458.183594 44.101562c-5.433594-5.894531-11.476563-11.195312-18.035156-15.808593-16.632813 17.699219-39.84375 27.738281-64.132813 27.734375-24.292969.003906-47.503906-10.035156-64.136719-27.734375-6.554687 4.613281-12.601562 9.914062-18.03125 15.808593 21.164063 22.929688 50.960938 35.957032 82.167969 35.925782 31.203125.03125 61-12.996094 82.167969-35.925782zm0 0" fill="#78b9eb"/><path d="m267.820312 91.507812c-2.050781 7.816407-3.25 15.832032-3.574218 23.90625 45.097656 12.914063 72.132812 58.933594 61.464844 104.613282 7.222656 3.632812 14.816406 6.464844 22.65625 8.449218 7.550781-28.847656 3.300781-59.511718-11.816407-85.21875-15.113281-25.703124-39.847656-44.328124-68.730469-51.75zm0 0" fill="#78b9eb"/><path d="m264.246094 115.414062c-.0625 1.542969-.230469 3.054688-.230469 4.613282 0 42.320312 23.875 81.015625 61.695313 100 10.652343-45.667969-16.382813-91.667969-61.464844-104.582032zm0 0" fill="#64c37d"/><path d="m32.015625 306.894531c-32.0039062 40.535157-32.0039062 97.734375 0 138.269531zm0 0" fill="#78b9eb"/><path d="m232.015625 376.027344c.011719-25.089844-8.445313-49.449219-24-69.132813v138.269531c15.554687-19.683593 24.011719-44.042968 24-69.136718zm0 0" fill="#78b9eb"/><path d="m120.015625 264.027344c-25.089844-.011719-49.453125 8.445312-69.136719 24h138.269532c-19.683594-15.554688-44.042969-24.011719-69.132813-24zm0 0" fill="#78b9eb"/><path d="m120.015625 488.027344c25.089844.015625 49.449219-8.441406 69.132813-24h-138.269532c19.683594 15.558594 44.046875 24.015625 69.136719 24zm0 0" fill="#78b9eb"/><path d="m50.878906 464.027344h138.269532c7.015624-5.515625 13.347656-11.847656 18.867187-18.863282v-138.269531c-5.519531-7.015625-11.851563-13.347656-18.867187-18.867187h-138.269532c-7.015625 5.519531-13.347656 11.851562-18.863281 18.867187v138.269531c5.515625 7.015626 11.847656 13.347657 18.863281 18.863282zm69.136719-144c30.925781 0 56 25.074218 56 56 0 30.929687-25.074219 56-56 56-30.929687 0-56-25.070313-56-56 0-30.925782 25.070313-56 56-56zm0 0" fill="#cc7400"/><path d="m120.015625 432.027344c30.925781 0 56-25.070313 56-56 0-30.925782-25.074219-56-56-56-30.929687 0-56 25.074218-56 56 0 30.929687 25.070313 56 56 56zm0-88c17.671875 0 32 14.328125 32 32 0 17.675781-14.328125 32-32 32-17.675781 0-32-14.324219-32-32 0-17.671875 14.324219-32 32-32zm0 0" fill="#ffda44"/><path d="m152.015625 376.027344c0 17.675781-14.328125 32-32 32-17.675781 0-32-14.324219-32-32 0-17.671875 14.324219-32 32-32 17.671875 0 32 14.328125 32 32zm0 0" fill="#ff5023"/><g fill="#231f20"><path d="m491.726562 344.4375c0-.191406-.160156-.328125-.199218-.511719-5.074219-18.179687-14.375-34.898437-27.136719-48.800781-.210937-.34375-.449219-.671875-.710937-.976562-.121094-.113282-.28125-.144532-.410157-.246094-22.585937-24.164063-54.179687-37.878906-87.253906-37.878906-33.078125 0-64.671875 13.714843-87.257813 37.878906-.128906.101562-.289062.132812-.40625.246094-.265624.304687-.503906.632812-.714843.976562-12.949219 14.109375-22.328125 31.117188-27.351563 49.601562-.085937.253907-.269531.445313-.34375.71875-.070312.273438 0 .511719-.039062.800782-8.039063 30.683594-3.523438 63.308594 12.550781 90.65625 16.078125 27.34375 42.382813 47.160156 73.105469 55.0625.242187.132812.488281.253906.742187.359375.445313.097656.898438.15625 1.351563.175781 16.191406 4.109375 33.082031 4.636719 49.496094 1.546875.40625-.023437.808593-.078125 1.203124-.167969h.046876c32.886718-6.109375 61.703124-25.730468 79.441406-54.085937 17.738281-28.359375 22.773437-62.855469 13.878906-95.101563-.007812-.085937.023438-.167968.007812-.253906zm-44.9375-44.410156c-39.808593 37.3125-101.742187 37.3125-141.550781 0 39.789063-37.351563 101.761719-37.351563 141.550781 0zm-174.773437 76c.027344-6.171875.605469-12.328125 1.726563-18.398438 48.808593 16.253906 78.070312 66.101563 68.472656 116.640625-41.941406-14.445312-70.121094-53.882812-70.199219-98.242187zm85.894531 102.320312c11.210938-59.0625-23.046875-117.296875-80.121094-136.191406 3.796876-10.988281 9.410157-21.265625 16.601563-30.398438 45.921875 42.996094 117.324219 42.996094 163.246094 0 6.71875 8.539063 12.058593 18.078126 15.824219 28.269532-61.414063 16.054687-99.625 77.246094-87.09375 139.472656-9.492188.980469-19.074219.59375-28.457032-1.152344zm44.175782-1.757812c-10.980469-54.140625 22.363281-107.398438 75.863281-121.167969 10.957031 54.136719-22.378907 107.378906-75.863281 121.167969zm0 0"/><path d="m320.933594 226.523438c.378906.222656.773437.414062 1.183594.570312 7.480468 3.769531 15.339843 6.746094 23.441406 8.871094.242187.132812.488281.253906.742187.359375.445313.097656.898438.15625 1.351563.175781 16.191406 4.109375 33.082031 4.636719 49.496094 1.546875.40625-.023437.808593-.078125 1.203124-.167969h.046876c7.824218-1.484375 15.480468-3.746094 22.855468-6.753906h.113282c.0625 0 .109374-.070312.175781-.097656 45.015625-18.496094 74.425781-62.328125 74.472656-111 0-2.542969-.226563-5.023438-.386719-7.527344 0-.136719 0-.269531 0-.40625v-.082031c-.515625-7.882813-1.816406-15.695313-3.886718-23.320313 0-.085937 0-.167968 0-.253906 0-.089844-.160157-.328125-.199219-.511719-5.074219-18.179687-14.375-34.898437-27.136719-48.800781-.210938-.34375-.449219-.671875-.710938-.976562-.121093-.113282-.28125-.144532-.410156-.246094-5.328125-5.675782-11.199218-10.816406-17.527344-15.351563l-.085937-.121093c-.121094-.113282-.273437-.144532-.394531-.242188-41.4375-29.582031-97.089844-29.582031-138.527344 0-.121094.097656-.273438.128906-.390625.242188l-.074219.101562c-6.324218 4.539062-12.195312 9.679688-17.527344 15.355469-.128906.101562-.289062.132812-.40625.246093-.265624.304688-.503906.632813-.714843.976563-12.949219 14.109375-22.328125 31.117187-27.351563 49.597656-.085937.257813-.269531.449219-.34375.722657-.070312.269531 0 .511718-.039062.800781-14.179688 54.117187 11.214844 110.808593 61.03125 136.261719zm21.28125-8.246094c-2.570313-.886719-5.121094-1.816406-7.59375-2.886719 7.925781-45.664063-18.339844-90.359375-62.085938-105.65625.269532-2.738281.726563-5.425781 1.207032-8.097656 48.808593 16.253906 78.070312 66.101562 68.472656 116.640625zm-69.847656-91.367188c28.890624 12.871094 47.539062 41.492188 47.648437 73.117188 0 2.402344-.203125 4.800781-.417969 7.242187-27.546875-17.828125-45.058594-47.617187-47.230468-80.359375zm85.542968 95.4375c11.210938-59.0625-23.046875-117.296875-80.121094-136.191406 3.796876-10.988281 9.410157-21.265625 16.601563-30.398438 22.167969 20.660157 51.320313 32.183594 81.625 32.269532 30.289063-.082032 59.433594-11.601563 81.597656-32.246094 6.726563 8.53125 12.074219 18.0625 15.847657 28.246094-61.414063 16.054687-99.625 77.246094-87.09375 139.472656-9.492188.980469-19.074219.59375-28.457032-1.152344zm-46.632812-183.574218c17.695312 16.160156 40.773437 25.164062 64.738281 25.253906 23.964844-.089844 47.039063-9.09375 64.734375-25.253906 2.089844 1.671874 4.082031 3.449218 6.039062 5.273437-19.21875 17.914063-44.5 27.90625-70.773437 27.980469-26.28125-.078125-51.558594-10.078125-70.777344-28 1.976563-1.804688 3.953125-3.582032 6.039063-5.253906zm167.878906 68.574218c-41.960938 11.226563-71.144531 49.246094-71.140625 92.679688.066406 6.113281.730469 12.203125 1.972656 18.1875-2.589843.902344-5.222656 1.679687-7.902343 2.398437-10.980469-54.140625 22.363281-107.398437 75.863281-121.167969.519531 2.574219.882812 5.230469 1.207031 7.902344zm-54.207031 104.394532c-.601563-3.875-.914063-7.792969-.933594-11.714844 0-34.84375 22.582031-65.671875 55.804687-76.183594-1.351562 36.972656-22.246093 70.445312-54.871093 87.898438zm2.128906-182.210938c-14.3125 11.988281-32.394531 18.539062-51.0625 18.496094-18.667969.042968-36.753906-6.507813-51.066406-18.496094 31.664062-18.003906 70.46875-18.003906 102.128906 0zm0 0"/><path d="m213.902344 301.507812c-.105469-.117187-.167969-.261718-.28125-.375-5.539063-6.902343-11.816406-13.179687-18.71875-18.71875-.097656-.097656-.230469-.152343-.335938-.25-43.59375-34.847656-105.511718-34.847656-149.105468 0-.101563.097657-.238282.152344-.335938.25-6.898438 5.539063-13.175781 11.816407-18.71875 18.71875-.113281.113282-.175781.257813-.28125.375-34.8125 43.582032-34.8125 105.460938 0 149.042969.105469.117188.167969.261719.28125.375 5.542969 6.902344 11.820312 13.175781 18.71875 18.71875.097656.097657.234375.152344.335938.25 43.59375 34.84375 105.511718 34.84375 149.105468 0 .105469-.097656.238282-.152343.335938-.25 6.902344-5.542969 13.179687-11.816406 18.71875-18.71875.113281-.113281.175781-.257812.28125-.375 34.816406-43.582031 34.816406-105.460937 0-149.042969zm-27.488282 154.519532h-132.761718c-4.949219-4.105469-9.515625-8.660156-13.636719-13.597656v-132.761719c4.121094-4.953125 8.683594-9.519531 13.636719-13.640625h132.761718c4.9375 4.113281 9.488282 8.664062 13.601563 13.601562v132.800782c-4.113281 4.9375-8.664063 9.488281-13.601563 13.597656zm29.601563-119.933594c10.664063 25.554688 10.664063 54.316406 0 79.871094zm-56.066406-56.066406h-79.871094c25.554687-10.664063 54.316406-10.664063 79.871094 0zm-135.933594 56.066406v79.871094c-10.667969-25.554688-10.667969-54.316406 0-79.871094zm56.0625 135.933594h79.871094c-25.554688 10.667968-54.316407 10.667968-79.871094 0zm0 0"/><path d="m236.8125 92.867188c-10.429688-44.453126-45.140625-79.167969-89.597656-89.597657-.097656 0-.207032 0-.304688-.082031-17.65625-4.179688-36.042968-4.179688-53.695312 0-.097656.042969-.207032.042969-.304688.082031-44.457031 10.429688-79.167968 45.144531-89.601562 89.597657-.046875.121093-.046875.25-.09375.371093-4.164063 17.621094-4.164063 35.972657 0 53.597657.046875.121093.046875.25.09375.367187 10.414062 44.457031 45.113281 79.179687 89.5625 89.625.085937.039063.191406.039063.285156.082031 17.660156 4.179688 36.054688 4.179688 53.714844 0 .09375 0 .199218 0 .285156-.082031 44.480469-10.410156 79.222656-45.125 89.65625-89.597656.050781-.121094.050781-.25.097656-.371094 4.164063-17.621094 4.164063-35.972656 0-53.597656-.097656-.144531-.097656-.273438-.097656-.394531zm-220.796875 27.160156c.039063-5.359375.496094-10.707032 1.359375-16h70.640625v32h-70.640625c-.863281-5.289063-1.320312-10.636719-1.359375-16zm88-16h32v32h-32zm48 0h70.636719c.863281 5.292968 1.320312 10.640625 1.363281 16-.042969 5.363281-.5 10.710937-1.363281 16h-70.636719zm66.910156-16h-66.910156v-66.910156c31.707031 10.339843 56.570313 35.203124 66.910156 66.910156zm-82.910156-70.636719v70.636719h-32v-70.636719c5.289063-.863281 10.636719-1.320313 16-1.363281 5.359375.042968 10.707031.5 16 1.363281zm-48 3.726563v66.910156h-66.914063c10.339844-31.707032 35.203126-56.570313 66.914063-66.910156zm-66.914063 130.910156h66.914063v66.914062c-31.710937-10.339844-56.574219-35.203125-66.914063-66.914062zm82.914063 70.640625v-70.640625h32v70.640625c-5.292969.863281-10.640625 1.320312-16 1.359375-5.363281-.039063-10.710937-.496094-16-1.359375zm48-3.726563v-66.914062h66.910156c-10.339843 31.710937-35.203125 56.574218-66.910156 66.914062zm0 0"/><path d="m120.015625 312.027344c-35.347656 0-64 28.65625-64 64 0 35.347656 28.652344 64 64 64 35.34375 0 64-28.652344 64-64-.042969-35.328125-28.671875-63.957032-64-64zm0 112c-26.511719 0-48-21.488282-48-48 0-26.507813 21.488281-48 48-48 26.507813 0 48 21.492187 48 48-.027344 26.5-21.503906 47.976562-48 48zm0 0"/><path d="m120.015625 336.027344c-22.09375 0-40 17.910156-40 40 0 22.09375 17.90625 40 40 40 22.089844 0 40-17.90625 40-40-.027344-22.078125-17.921875-39.972656-40-40zm0 64c-13.257813 0-24-10.742188-24-24 0-13.253906 10.742187-24 24-24 13.253906 0 24 10.746094 24 24 0 13.257812-10.746094 24-24 24zm0 0"/></g></svg>