<svg id="Capa_1" enable-background="new 0 0 513.195 513.195" height="512" viewBox="0 0 513.195 513.195" width="512" xmlns="http://www.w3.org/2000/svg"><g><g><g><path d="m30.281 95.094h451.439v403.083h-451.439z" fill="#fbf4f4"/><path d="m256 95.094h225.719v403.083h-225.719z" fill="#def1fd"/></g><g><path d="m497 512.598h-482c-8.284 0-15-6.716-15-15 0-7.645 6.197-13.841 13.842-13.841h484.317c7.644 0 13.841 6.197 13.841 13.841 0 8.284-6.716 15-15 15z" fill="#def1fd"/><path d="m498.159 483.756h-242.159v28.842h241c8.284 0 15-6.716 15-15 0-7.645-6.197-13.842-13.841-13.842z" fill="#cedafd"/></g><g><path d="m505.736 72.746-32.066-63.878c-2.545-5.07-7.733-8.27-13.406-8.27h-406.712c-5.547 0-10.641 3.061-13.244 7.958l-34.294 64.503s-5.927 15.235-5.927 23.767c0 27.901 22.915 50.518 51.183 50.518 28.267 0 51.183-22.618 51.183-50.518 0 27.901 22.915 50.518 51.183 50.518 28.267 0 51.183-22.618 51.183-50.518 0 27.901 22.915 50.518 51.183 50.518s51.183-22.618 51.183-50.518c0 27.901 22.915 50.518 51.183 50.518s51.183-22.618 51.183-50.518c0 27.901 22.915 50.518 51.183 50.518 28.267 0 51.183-22.618 51.183-50.518-.003-8.719-2.241-16.922-6.181-24.08z" fill="#d86eaf"/><path d="m505.736 72.746-32.066-63.878c-2.545-5.07-7.733-8.27-13.406-8.27h-204.264v146.747c28.268 0 51.183-22.618 51.183-50.518 0 27.901 22.915 50.518 51.183 50.518s51.183-22.618 51.183-50.518c0 27.901 22.915 50.518 51.183 50.518 28.267 0 51.183-22.618 51.183-50.518-.001-8.72-2.239-16.923-6.179-24.081z" fill="#a82ac5"/></g></g><g><g><path d="m348.14 393.541c-36.15 35.625-92.304 38.046-92.304 38.046s2.456-55.34 38.606-90.965c29.935-29.5 73.586-36.232 87.711-37.675 2.428-.248 4.468 1.762 4.216 4.155-1.464 13.921-8.295 56.939-38.229 86.439z" fill="#7a38b8"/><path d="m217.231 340.622c36.15 35.625 38.606 90.965 38.606 90.965s-56.154-2.421-92.303-38.046c-29.934-29.5-36.765-72.519-38.229-86.439-.252-2.393 1.787-4.403 4.216-4.155 14.124 1.443 57.775 8.175 87.71 37.675z" fill="#e9a0c0"/><g><path d="m293.97 342.374c0 41.813-26.153 77.055-35.049 87.834-1.517 1.839-4.325 1.839-5.843 0-8.896-10.779-35.049-46.021-35.049-87.834 0-41.725 26.043-76.908 34.993-87.766 1.546-1.875 4.409-1.875 5.955 0 8.95 10.858 34.993 46.041 34.993 87.766z" fill="#d86eaf"/><path d="m258.978 254.608c-.773-.938-1.875-1.407-2.977-1.407v178.385c1.081 0 2.163-.46 2.921-1.379 8.896-10.779 35.049-46.021 35.049-87.834-.001-41.724-26.044-76.907-34.993-87.765z" fill="#a82ac5"/></g></g><g><g><path d="m498.195 375.515h-19.695l-14.644-12.256-32.365 10.77c-5.02-2.425-8.483-7.565-8.483-13.514v-19.943l8.49-26.042-8.49-11.928v-40.029l8.82-24.05-8.82-13.92v-11.92c0-8.284 6.716-15 15-15h19.694l16.684 8.371 30.325-6.885c5.02 2.425 8.483 7.565 8.483 13.514v19.943l-8.491 26.565 8.491 11.406v40.029l-8.491 23.985 8.491 13.986v11.92c.001 8.282-6.715 14.998-14.999 14.998z" fill="#e9a0c0"/><path d="m513.195 212.681c0-5.949-3.463-11.089-8.483-13.514l-30.325 6.885-6.285-3.153v163.914l10.398 8.703h19.695c8.284 0 15-6.716 15-15v-11.92l-8.491-13.986 8.491-23.985v-40.029l-8.491-11.406 8.491-26.565z" fill="#d86eaf"/></g><g><g><path d="m438.01 375.515h40.491l34.695-26.92v-37.971l-81.696 63.389c1.971.952 4.174 1.502 6.51 1.502z" fill="#fbf4f4"/><path d="m468.102 345.612v29.903h10.399l34.694-26.921v-37.97z" fill="#def1fd"/></g><g><path d="m498.195 197.681h-40.491l-34.694 26.919v37.971l81.695-63.389c-1.972-.952-4.174-1.501-6.51-1.501z" fill="#fbf4f4"/><path d="m468.102 227.583 36.602-28.4c-1.971-.953-4.173-1.502-6.509-1.502h-30.093z" fill="#def1fd"/></g><g><path d="m423.01 340.571 90.185-69.977v-37.97l-90.185 69.976z" fill="#fbf4f4"/><path d="m468.102 267.612v37.971l45.093-34.989v-37.97z" fill="#def1fd"/></g></g></g></g></g></svg>