<?xml version="1.0" encoding="iso-8859-1"?>
<!-- Generator: Adobe Illustrator 19.0.0, SVG Export Plug-In . SVG Version: 6.00 Build 0)  -->
<svg version="1.1" id="Capa_1" xmlns="http://www.w3.org/2000/svg" xmlns:xlink="http://www.w3.org/1999/xlink" x="0px" y="0px"
	 viewBox="0 0 512 512" style="enable-background:new 0 0 512 512;" xml:space="preserve">
<g>
	<g>
		<path d="M506.329,271.196c-7.731-7.732-45.588-45.588-53.319-53.319c-6.87-6.868-17.554-7.467-25.117-1.963l-11.298-11.301
			c12.518-14.369,20.973-31.684,24.583-50.51c0.779-4.068-1.886-7.999-5.954-8.779c-4.068-0.781-7.999,1.885-8.779,5.954
			c-14.003,73.06-105.01,100.6-157.39,48.218c-58.398-58.402-16.967-159.072,65.908-159.072c46.736,0,84.948,33.997,91.996,78.438
			c0.649,4.09,4.487,6.886,8.583,6.232c4.091-0.649,6.882-4.491,6.232-8.583c-8.169-51.507-52.473-91.089-106.811-91.089
			c-12.511,0-24.693,2.106-36.142,6.142c-55.335-16.202-112.001,0.417-149.692,38.09l-0.001,0.001
			c-2.486,1.555-45.779,44.369-44.189,110.608c1.533,65.32,44.188,103.3,44.188,103.3c28.18,28.18,66.032,44.228,106.936,44.233
			h0.017c68.497,0,126.512-45.251,145.089-108.608c1.636-1.268,3.241-2.594,4.819-3.969l11.299,11.299
			c-5.505,7.564-4.901,18.249,1.964,25.116c28.264,28.264,27.038,27.037,26.705,26.705c0.413,0.413,4.118,4.117,26.615,26.614
			c7.564,7.566,19.879,7.567,27.446,0.001l6.313-6.313C514.01,290.959,513.746,278.614,506.329,271.196z M263.58,41.035
			c3.596,0.576,7.159,1.557,10.675,2.955c-4.052,2.755-7.509,5.49-10.675,8.275V41.035z M248.579,41.028v27.375
			c-10.625,14.033-17.582,30.33-20.379,47.7c-13.857-2.862-27.005-7.82-39.135-14.673C199.85,74.273,219.976,45.604,248.579,41.028z
			 M232.729,169.112h-57.11c0.604-18.314,3.435-36.455,8.467-53.274c13.294,7.189,27.654,12.342,42.745,15.284
			C226.547,143.956,228.463,156.77,232.729,169.112z M202.094,51.517c-11.079,11.959-19.582,26.555-25.861,41.677
			c-5.595-4.058-10.92-8.552-15.918-13.493C172.168,67.985,186.306,58.291,202.094,51.517z M150.231,90.813
			c6.441,6.314,13.353,11.987,20.668,16.984c-6.031,18.857-9.535,39.666-10.19,61.315h-40.602
			C121.694,140.131,132.374,112.805,150.231,90.813z M120.106,184.113h40.602c0.656,21.656,4.161,42.473,10.197,61.336
			c-7.26,4.951-14.18,10.605-20.666,16.96C132.007,239.904,121.671,212.689,120.106,184.113z M160.318,273.521
			c5.029-4.97,10.355-9.466,15.916-13.492c6.256,15.071,14.773,29.699,25.787,41.63C186.019,294.78,172.1,285.161,160.318,273.521z
			 M248.579,312.199c-28.583-4.542-48.708-33.201-59.511-60.395c18.478-10.429,38.888-16.207,59.511-17.334V312.199z
			 M248.579,219.451c-22.283,1.096-44.364,7.09-64.485,17.965c-5.038-16.827-7.871-34.978-8.477-53.303h63.617
			c2.699,5.108,5.822,10.009,9.345,14.662V219.451z M263.58,214.908c2.015,1.771,4.202,3.557,6.058,4.968
			c-2.017-0.18-4.036-0.325-6.058-0.425V214.908z M263.58,312.199v-77.729c20.609,1.126,41.006,6.898,59.476,17.314
			C312.403,278.811,292.244,307.644,263.58,312.199z M310.242,301.546c10.978-11.925,19.457-26.501,25.671-41.526
			c5.567,4.029,10.898,8.529,15.932,13.504C339.687,285.527,325.62,294.904,310.242,301.546z M361.917,262.404
			c-6.497-6.366-13.429-12.028-20.703-16.984c0.415-1.302,0.828-2.606,1.22-3.931c13.049-0.894,26.103-4.168,38.269-9.828
			C375.956,242.421,369.707,252.787,361.917,262.404z M429.857,241.027c-1.702-1.702-1.702-4.527,0.002-6.229l6.313-6.313
			c1.702-1.704,4.528-1.704,6.229,0l21.355,21.355l-12.544,12.544L429.857,241.027z M495.722,288.033l-6.313,6.313
			c-1.702,1.704-4.528,1.704-6.229,0l-21.356-21.356l12.544-12.544l21.355,21.357C497.411,283.492,497.411,286.345,495.722,288.033z
			"/>
	</g>
</g>
<g>
	<g>
		<path d="M495.214,412.874h-18.761v-12.895c0-8.315-6.502-15.066-14.804-15.367c-49.507-1.799-56.898-22.413-110.748-30.764
			c-46.662-7.239-81.874,17.288-94.901,28.214c-13.022-10.926-48.225-35.45-94.903-28.214
			c-53.852,8.352-61.204,28.925-110.601,30.758c-8.383,0.312-14.95,7.13-14.95,15.524v12.743H16.786
			C7.53,412.874,0,420.404,0,429.661v17.104c0,9.257,7.53,16.786,16.786,16.786h209.49c3.397,13.457,15.628,23.071,29.644,23.071
			c14.153,0,26.261-9.568,29.647-23.071h59.37c4.143,0,7.5-3.357,7.5-7.5s-3.357-7.5-7.5-7.5h-61.629
			c-5.976,0-11.039,4.263-12.038,10.139c-2.887,16.975-27.269,17.196-30.619,0.439c-1.225-6.129-6.6-10.578-12.782-10.578H16.786
			c-0.984,0-1.785-0.801-1.785-1.785v-17.104c0-0.985,0.801-1.786,1.785-1.786c7.536,0,471.83,0,478.427,0
			c0.984,0,1.785,0.801,1.785,1.785v17.105c0,0.984-0.802,1.785-1.786,1.785H379.937c-4.143,0-7.5,3.357-7.5,7.5s3.357,7.5,7.5,7.5
			h115.276c9.257,0,16.787-7.529,16.787-16.786V429.66C512,420.404,504.469,412.874,495.214,412.874z M248.453,412.874H50.548
			v-12.743c0-0.284,0.227-0.523,0.506-0.533c52.922-1.964,61.076-22.974,112.343-30.926c43.291-6.711,76.312,19.035,85.041,26.714
			C248.511,407.344,248.509,403.634,248.453,412.874z M461.452,412.874H263.546c-0.057-9.244-0.058-5.53,0.015-17.502
			c8.704-7.703,41.559-33.438,85.041-26.7c51.307,7.957,59.443,29.003,112.502,30.932h0.001c0.191,0.007,0.347,0.176,0.347,0.376
			V412.874z"/>
	</g>
</g>
<g>
	<g>
		<path d="M334.962,45.259c-79.378,0-117.371,95.927-62.485,150.815c55.492,55.489,150.815,16.023,150.815-62.485
			C423.293,84.701,383.858,45.26,334.962,45.259z M283.085,185.467C237.469,139.85,269.104,60.26,334.962,60.26
			c40.595,0,73.328,32.725,73.328,73.328C408.292,198.744,329.179,231.558,283.085,185.467z"/>
	</g>
</g>
<g>
</g>
<g>
</g>
<g>
</g>
<g>
</g>
<g>
</g>
<g>
</g>
<g>
</g>
<g>
</g>
<g>
</g>
<g>
</g>
<g>
</g>
<g>
</g>
<g>
</g>
<g>
</g>
<g>
</g>
</svg>
