<svg id="Capa_1" enable-background="new 0 0 496.667 496.667" height="512" viewBox="0 0 496.667 496.667" width="512" xmlns="http://www.w3.org/2000/svg"><g id="XMLID_717_"><path id="XMLID_948_" d="m263.334 170.625h-30v-51.295c0-35.472 28.858-64.33 64.329-64.33 18.93 0 34.33-15.4 34.33-34.33v-20.67h30v20.67c0 35.472-28.858 64.33-64.33 64.33-18.929 0-34.329 15.4-34.329 34.33z" fill="#192b80"/><path id="XMLID_632_" d="m118.862 318h265.393l-61.279-167.374h-149.286z" fill="#9ef"/><path id="XMLID_951_" d="m384.255 318-61.279-167.374h-74.418v167.374z" fill="#81d7f4"/><path id="XMLID_633_" d="m26.195 225.333v215.431c0 30.874 25.028 55.902 55.902 55.902 22.313 0 42.489-13.269 51.329-33.757l40.265-93.328-23.57-85.915z" fill="#39f"/><path id="XMLID_629_" d="m470.472 225.333v215.431c0 30.874-25.028 55.902-55.902 55.902-22.313 0-42.489-13.269-51.329-33.757l-40.265-93.328 8.493-82.053z" fill="#37f"/><circle id="XMLID_613_" cx="118.862" cy="225.333" fill="#37f" r="92.667"/><circle id="XMLID_628_" cx="377.802" cy="225.333" fill="#2453b3" r="92.667"/><ellipse id="XMLID_122_" cx="186.787" cy="335.333" fill="#2453b3" rx="43.667" ry="43.667" transform="matrix(.707 -.707 .707 .707 -182.408 230.295)"/><g fill="#192b80"><path id="XMLID_109_" d="m310.326 291.667c-24.077 0-43.666 19.589-43.666 43.667s19.589 43.667 43.666 43.667c24.078 0 43.667-19.589 43.667-43.667 0-24.079-19.589-43.667-43.667-43.667z"/><path id="XMLID_689_" d="m416.469 210.334h-23.667v-23.667h-30v23.667h-23.667v30h23.667v23.666h30v-23.666h23.667z"/></g></g><g fill="#2453b3"><path id="XMLID_13_" d="m103.862 252.333h30v30h-30z"/><path id="XMLID_9_" d="m103.862 168.333h30v30h-30z"/><path id="XMLID_6_" d="m57.529 210.333h30v30h-30z"/><path id="XMLID_4_" d="m150.195 210.333h30v30h-30z"/></g></svg>