<svg height="512pt" viewBox="-4 0 512 512" width="512pt" xmlns="http://www.w3.org/2000/svg"><path d="m204.585938 491.992188h-.199219c-5.523438 0-10.003907 4.476562-10.003907 10.003906 0 5.523437 4.480469 10.003906 10.003907 10.003906h.199219c5.523437 0 10.003906-4.480469 10.003906-10.003906 0-5.527344-4.480469-10.003906-10.003906-10.003906zm0 0"/><path d="m156.214844 235.996094c-.003906 5.527344 4.476562 10.007812 10 10.007812l140.433594.058594h.003906c5.519531 0 10-4.476562 10.003906-10 0-5.523438-4.476562-10.003906-10-10.007812l-140.433594-.058594c-5.527344.027344-10.003906 4.476562-10.007812 10zm0 0"/><path d="m480.191406 62.761719c-18.695312-9.363281-44.019531-6.0625-56.25 18.359375l-15.136718 30.234375v-24.25c0-2.632813-1.027344-5.019531-2.6875-6.804688-.023438-.027343-.035157-.054687-.058594-.082031l-73.105469-77.097656c-1.890625-1.996094-4.574219-3.121094-7.316406-3.121094h-286.84375c-21.390625 0-38.792969 17.40625-38.792969 38.804688v434.363281c0 21.414062 17.402344 38.832031 38.792969 38.832031h125.753906c5.523437 0 10.003906-4.480469 10.003906-10.003906 0-5.523438-4.476562-10.003906-10.003906-10.003906h-125.753906c-10.355469 0-18.785157-8.445313-18.785157-18.824219v-434.363281c0-10.363282 8.429688-18.796876 18.785157-18.796876h276.894531v40.226563c0 20.332031 16.539062 36.875 36.867188 36.875h36.238281v54.207031l-80.820313 161.402344c-.433594-.058594-.875-.097656-1.324218-.097656l-140.433594.027344c-5.523438.003906-10.003906 4.480468-10 10.007812 0 5.523438 4.476562 10 10.003906 10l136.558594-.027344-5.359375 66.648438-131.203125.050781c-5.527344.003906-10.003906 4.484375-10 10.007813 0 5.523437 4.480468 10 10.003906 10h.003906l140.414063-.054688h.011719c2.382812 0 4.746093-.855469 6.613281-2.5l64.179687-56.519531c.996094-.878907 1.769532-1.910157 2.328125-3.027344h.003907l.046874-.089844c.011719-.023437.023438-.046875.035157-.070312l8.9375-17.84375v133.933593c0 10.378907-8.425781 18.824219-18.785157 18.824219h-125.753906c-5.523437 0-10.003906 4.476563-10.003906 10.003907 0 5.523437 4.480469 10.003906 10.003906 10.003906h125.753906c21.390626 0 38.796876-17.421875 38.796876-38.832032v-173.882812l90.378906-180.457031c12.230468-24.4375-.296875-46.699219-18.992188-56.0625zm-127.636718 14.339843c-9.296876 0-16.859376-7.570312-16.859376-16.871093v-25.136719l39.832032 42.007812zm-33.949219 308.316407 3.683593-45.808594 30.796876 15.441406zm162.6875-275.554688-114.925781 229.464844-39.4375-19.773437 80.664062-161.09375c.003906-.011719.011719-.023438.015625-.035157l34.222656-68.34375c7.632813-15.242187 22.074219-13.097656 29.398438-9.429687 7.332031 3.671875 17.699219 13.953125 10.0625 29.210937zm0 0"/><path d="m128.789062 287.890625c-4.5-3.207031-10.746093-2.160156-13.953124 2.339844l-29.359376 41.171875-8.054687-7.136719c-4.136719-3.664063-10.460937-3.28125-14.121094.851563-3.667969 4.136718-3.285156 10.457031.851563 14.125l16.378906 14.511718c1.835938 1.628906 4.199219 2.515625 6.632812 2.515625.375 0 .753907-.019531 1.128907-.0625 2.820312-.320312 5.371093-1.820312 7.015625-4.132812l35.816406-50.226563c3.207031-4.5 2.164062-10.746094-2.335938-13.957031zm0 0"/><path d="m128.785156 366.152344c-4.5-3.207032-10.746094-2.160156-13.953125 2.339844l-29.351562 41.191406-8.050781-7.148438c-4.132813-3.667968-10.457032-3.292968-14.125.835938-3.667969 4.132812-3.292969 10.457031.839843 14.125l16.375 14.542968c1.84375 1.632813 4.207031 2.519532 6.644531 2.519532.375 0 .75-.019532 1.125-.0625 2.820313-.316406 5.375-1.820313 7.019532-4.132813l35.816406-50.257812c3.207031-4.5 2.160156-10.746094-2.339844-13.953125zm0 0"/><path d="m64.144531 260.945312 16.375 14.539063c1.84375 1.632813 4.207031 2.523437 6.644531 2.523437.375 0 .75-.019531 1.125-.0625 2.820313-.320312 5.375-1.824218 7.019532-4.136718l35.816406-50.253906c3.207031-4.5 2.160156-10.746094-2.339844-13.953126-4.5-3.207031-10.746094-2.160156-13.953125 2.339844l-29.355469 41.1875-8.050781-7.144531c-4.128906-3.667969-10.453125-3.292969-14.121093.835937-3.667969 4.132813-3.292969 10.457032.839843 14.125zm0 0"/><path d="m214.644531 50.710938h-20.117187c-11.921875 0-21.621094 9.699218-21.621094 21.625v11.285156h-11.277344c-11.90625 0-21.59375 9.6875-21.59375 21.597656v20.121094c0 11.925781 9.6875 21.628906 21.59375 21.628906h11.273438v11.28125c0 11.925781 9.703125 21.625 21.625 21.625h20.117187c11.921875 0 21.621094-9.699219 21.621094-21.625v-11.28125h11.277344c11.921875 0 21.621093-9.703125 21.621093-21.628906v-20.121094c0-11.910156-9.699218-21.597656-21.621093-21.597656h-11.277344v-11.285156c0-11.925782-9.699219-21.625-21.621094-21.625zm32.898438 52.917968c.859375 0 1.613281.742188 1.613281 1.585938v20.125c0 .863281-.753906 1.617187-1.613281 1.617187h-21.28125c-5.523438 0-10.003907 4.480469-10.003907 10.003907v21.289062c0 .878906-.738281 1.617188-1.613281 1.617188h-20.117187c-.859375 0-1.613282-.753907-1.613282-1.617188v-21.289062c0-5.523438-4.476562-10.003907-10.003906-10.003907h-21.28125c-.859375 0-1.582031-.738281-1.582031-1.617187v-20.125c0-.84375.738281-1.585938 1.582031-1.585938h21.28125c5.523438 0 10.003906-4.480468 10.003906-10.003906v-21.289062c0-.859376.753907-1.617188 1.613282-1.617188h20.117187c.875 0 1.613281.742188 1.613281 1.617188v21.289062c0 5.523438 4.476563 10.003906 10.003907 10.003906zm0 0"/></svg>