<svg id="Capa_1" enable-background="new 0 0 512 512" height="512" viewBox="0 0 512 512" width="512" xmlns="http://www.w3.org/2000/svg"><g><path d="m256 106.88c-114.24-25.387-149.439 31.414-144.45 130.005 9.464 88.164 85.674 137.227 144.45 103.232 58.776 33.996 134.986-15.067 144.45-103.232 4.989-98.591-30.21-155.392-144.45-130.005z" fill="#fc5a36"/><path d="m240.83 346.958c-55.97 18.61-120.62-29.33-129.28-110.07-4.65-91.81 25.56-147.39 122-134.09-57.09 10.28-75.72 60.57-72 134.09 6.12 56.99 40.12 97.63 79.28 110.07z" fill="#db3915"/><path d="m283.295 76.033h-22.735c-2.519 0-4.56-2.042-4.56-4.56 0-22.334 18.105-40.44 40.44-40.44h22.735c2.519 0 4.56 2.042 4.56 4.56-.001 22.334-18.106 40.44-40.44 40.44z" fill="#76fca3"/><path d="m7.5 350.964h497v130h-497z" fill="#64b9fc"/><path d="m7.5 350.968h30v130h-30z" fill="#31a7fb"/><path d="m57.875 350.964h60v130h-60z" fill="#ffe177"/><path d="m394.125 350.964h60v130h-60z" fill="#ffe177"/><g><path d="m504.5 343.468h-158.11c35.073-21.729 59.546-64.973 61.55-106.2 1.443-28.456-.398-51.933-5.629-71.771-1.056-4.005-5.16-6.396-9.164-5.34-4.005 1.056-6.396 5.159-5.34 9.164 4.751 18.019 6.487 40.554 5.163 66.977-6.589 60.642-67.083 135.572-133.216 97.329-2.324-1.344-5.186-1.344-7.51 0-65.877 38.097-126.622-36.646-133.216-97.33-2.736-54.668 7.188-90.748 30.337-110.3 20.947-17.691 54.286-22.063 99.134-13.034v21.609h-15.894c-2.533-.835-4.193-2.575-4.98-5.219-2.156-3.536-6.772-4.654-10.308-2.499-3.537 2.156-4.655 6.771-2.499 10.308 3.335 6.825 9.265 10.962 17.787 12.41h48.068c7.459 0 14.287-5.832 17.912-11.939 2.416-3.364 1.647-8.05-1.717-10.467s-8.052-1.648-10.467 1.717c-.817 1.668-3.542 5.689-5.729 5.689h-17.172v-21.616c56.023-11.33 92.816-2.076 112.368 28.219 2.246 3.481 6.89 4.481 10.368 2.235 3.48-2.246 4.481-6.889 2.235-10.368-27.253-42.231-80.44-43.855-124.972-35.361.1-4.63.177-9.557-.336-14.149h20.131c26.434 0 47.939-21.506 47.939-47.939 0-6.65-5.41-12.061-12.061-12.061h-22.734c-20.898 0-38.705 13.447-45.251 32.138-9.637-11.464-24.072-18.769-40.187-18.769-4.143 0-7.5 3.357-7.5 7.5s3.357 7.5 7.5 7.5c24.669 0 39.39 23.079 37.5 45.772-48.673-9.344-84.338-3.809-108.813 16.862-27 22.805-38.654 62.949-35.628 122.73 2.004 41.227 26.477 84.471 61.55 106.201h-158.109c-4.143 0-7.5 3.357-7.5 7.5v130c0 4.143 3.357 7.5 7.5 7.5h325.91c4.143 0 7.5-3.357 7.5-7.5s-3.357-7.5-7.5-7.5h-208.04v-115h261.255v115h-20.535c-4.143 0-7.5 3.357-7.5 7.5s3.357 7.5 7.5 7.5h138.41c4.143 0 7.5-3.357 7.5-7.5v-130c0-4.141-3.357-7.498-7.5-7.498zm-208.061-304.936h19.665c-1.491 16.792-15.637 30-32.81 30h-19.664c1.491-16.792 15.637-30 32.809-30zm-186.069 434.936h-45v-41.16c0-4.143-3.357-7.5-7.5-7.5s-7.5 3.357-7.5 7.5v41.16h-35.37v-115h35.37v41.15c0 4.143 3.357 7.5 7.5 7.5s7.5-3.357 7.5-7.5v-41.15h45zm336.255-115v114.996h-45v-114.996zm50.375 115h-35.375v-115h35.375z"/><path d="m361.605 415.968c0-4.143-3.357-7.5-7.5-7.5h-185.105c-4.143 0-7.5 3.357-7.5 7.5s3.357 7.5 7.5 7.5h185.105c4.143 0 7.5-3.358 7.5-7.5z"/></g></g></svg>