<svg viewBox="-46 1 511 511.99912" xmlns="http://www.w3.org/2000/svg"><path d="m409.578125 143.492188c9.550781-11.921876 13.140625-28.480469 9.605469-44.300782-2.132813-9.554687-6.785156-19.011718-11.277344-28.15625-9.292969-18.902344-18.074219-36.753906-7.121094-56.109375 2.71875-4.808593 1.023438-10.910156-3.78125-13.628906-4.804687-2.714844-10.90625-1.027344-13.625 3.78125-16.152344 28.546875-3.550781 54.183594 6.578125 74.78125 4.164063 8.46875 8.09375 16.464844 9.710938 23.695313.832031 3.726562 2.882812 16.722656-5.699219 27.429687-7.421875 9.265625-21.359375 14.449219-40.449219 15.09375l-11.519531-11.757813v-124.320312c0-5.523438-4.480469-10-10-10h-34.40625c-5.519531 0-10 4.476562-10 10v86.140625c-9.75.222656-19.167969 4.207031-26.3125 11.5l-73.183594 74.6875c-47.414062-10.679687-75.246094 8.898437-98.226562 31.875-3.875 3.878906-3.90625 10.15625-.070313 14.070313l23.53125 24.015624-18.160156 8.640626c-4.988281 2.375-7.109375 8.34375-4.734375 13.328124 1.714844 3.601563 5.300781 5.707032 9.035156 5.707032 1.441406 0 2.90625-.3125 4.292969-.972656l24.367187-11.597657 12.558594 12.8125c-4.132812 24.582031 3.507813 49.355469 21 67.207031 14.296875 14.589844 33.820313 22.570313 53.714844 22.570313 4.109375 0 8.230469-.347656 12.328125-1.039063l12.679687 12.621094-14.320312 31.347656c-2.296875 5.023438-.085938 10.957032 4.9375 13.25 1.347656.617188 2.761719.90625 4.148438.90625 3.796874 0 7.421874-2.167968 9.101562-5.84375l11.25-24.617187 22.425781 22.320313c1.953125 1.941406 4.503907 2.914062 7.054688 2.914062 2.5625 0 5.121093-.980469 7.070312-2.929688 23.003907-23 42.59375-50.867187 31.851563-98.359374l73.273437-74.777344c14.886719-15.199219 14.886719-39.921875 0-55.117188l-25.859375-26.386718c16.789063-3.097657 29.617188-10.035157 38.230469-20.78125zm-101.984375-123.492188h14.40625v118.292969.015625 47.601562c0 3.972656-3.230469 7.203125-7.203125 7.203125s-7.203125-3.230469-7.203125-7.203125zm-131.621094 313.414062c-9.066406-9.253906-14.566406-21.03125-16.003906-33.527343l48.792969 49.792969c-12.207031-1.433594-23.730469-7.023438-32.789063-16.265626zm108.847656 64.128907-46.757812-46.539063-79.371094-81c-.003906-.003906-.003906-.007812-.007812-.007812l-47.5-48.476563c20.417968-18.363281 41.425781-27.378906 74.890625-19.132812l117.796875 120.21875c8.285156 33.492187-.703125 54.515625-19.050782 74.9375zm98.097657-165.765625-70.019531 71.460937-107.640626-109.847656 70.308594-71.75c3.28125-3.351563 7.566406-5.230469 12.027344-5.460937v69.730468c0 15 12.203125 27.203125 27.203125 27.203125s27.203125-12.203125 27.203125-27.203125v-23.015625l40.917969 41.761719c7.328125 7.476562 7.328125 19.644531 0 27.121094zm0 0"/><path d="m77.289062 419.550781-29.976562 30.59375c-3.867188 3.945313-3.800781 10.273438.144531 14.140625 1.945313 1.90625 4.472657 2.855469 6.996094 2.855469 2.59375 0 5.1875-1 7.144531-3l29.980469-30.59375c3.863281-3.945313 3.800781-10.277344-.144531-14.140625-3.945313-3.867188-10.28125-3.800781-14.144532.144531zm0 0"/><path d="m160.816406 435.101562c-4.550781-3.125-10.777344-1.964843-13.90625 2.585938l-16.691406 24.335938c-3.125 4.550781-1.96875 10.777343 2.585938 13.902343 1.730468 1.1875 3.699218 1.753907 5.648437 1.753907 3.1875 0 6.316406-1.519532 8.253906-4.34375l16.695313-24.332032c3.125-4.554687 1.96875-10.777344-2.585938-13.902344zm0 0"/><path d="m73.785156 362.503906c4.496094-3.210937 5.535156-9.457031 2.324219-13.949218-3.210937-4.492188-9.457031-5.53125-13.953125-2.320313l-23.839844 17.039063c-4.496094 3.210937-5.535156 9.453124-2.324218 13.949218 1.953124 2.730469 5.027343 4.1875 8.148437 4.1875 2.011719 0 4.042969-.609375 5.804687-1.867187zm0 0"/><path d="m273.074219 473.027344c-5.34375-1.402344-10.808594 1.792968-12.210938 7.132812l-5.066406 19.296875c-1.402344 5.34375 1.789063 10.808594 7.132813 12.210938.851562.226562 1.703124.332031 2.546874.332031 4.433594 0 8.484376-2.972656 9.664063-7.464844l5.066406-19.296875c1.402344-5.34375-1.792969-10.808593-7.132812-12.210937zm0 0"/><path d="m39.058594 233.984375c-1.457032-5.328125-6.957032-8.460937-12.285156-7.007813l-18.910157 5.171876c-5.324219 1.457031-8.464843 6.957031-7.007812 12.285156 1.214843 4.441406 5.246093 7.363281 9.640625 7.363281.875 0 1.761718-.113281 2.644531-.355469l18.910156-5.171875c5.324219-1.457031 8.464844-6.957031 7.007813-12.285156zm0 0"/><path d="m98.554688 397.84375-.375.386719c-3.863282 3.945312-3.800782 10.277343.144531 14.140625 1.945312 1.90625 4.472656 2.855468 7 2.855468 2.59375 0 5.183593-1 7.144531-3l.375-.386718c3.863281-3.945313 3.800781-10.273438-.144531-14.140625-3.945313-3.863281-10.277344-3.796875-14.144531.144531zm0 0"/></svg>