<?xml version="1.0"?>
<svg xmlns="http://www.w3.org/2000/svg" viewBox="0 0 512 512" width="512" height="512"><g id="No_Theatre" data-name="No Theatre"><g id="Outline"><path d="M136,16.5H504a8,8,0,0,0,0-16H136a8,8,0,0,0,0,16Z"/><path d="M504,48H8a8,8,0,0,0-8,8V312a8,8,0,0,0,8,8h96a8,8,0,0,0,8-8V260a68.025,68.025,0,0,0-32.977-58.263A80.12,80.12,0,0,0,128,128V64H384v64a80.12,80.12,0,0,0,48.977,73.737A68.025,68.025,0,0,0,400,260v52a8,8,0,0,0,8,8h96a8,8,0,0,0,8-8V56A8,8,0,0,0,504,48ZM96,260v44H80V272a8,8,0,0,0-16,0v32H48V248a8,8,0,0,0-16,0v56H16V208H44A52.059,52.059,0,0,1,96,260Zm16-132a64.072,64.072,0,0,1-64,64H16V64H32V96a8,8,0,0,0,16,0V64H64V96a8,8,0,0,0,16,0V64h32ZM496,304H480V248a8,8,0,0,0-16,0v56H448V272a8,8,0,0,0-16,0v32H416V260a52.059,52.059,0,0,1,52-52h28Zm0-112H464a64.072,64.072,0,0,1-64-64V64h32V96a8,8,0,0,0,16,0V64h16V96a8,8,0,0,0,16,0V64h16Z"/><path d="M309.848,104.112a8,8,0,0,0-3.066-10.89C238.219,54.785,152,104.252,152,184A104.118,104.118,0,0,0,256,288c73.895,0,124.452-75.444,96.11-143.795a8,8,0,0,0-14.78,6.129C361.324,208.2,318.493,272,256,272a88.1,88.1,0,0,1-88-88c0-67.716,73.215-109.195,130.958-76.821A8,8,0,0,0,309.848,104.112Z"/><path d="M299.657,140.343a8,8,0,0,0-11.314,0L256,172.686l-32.343-32.343a8,8,0,0,0-11.314,11.314L244.686,184l-32.343,32.343a8,8,0,0,0,11.314,11.314L256,195.314C288.756,226.916,288.1,230,294,230a8.009,8.009,0,0,0,5.657-13.657L267.314,184l32.343-32.343A8,8,0,0,0,299.657,140.343Z"/><circle cx="328" cy="120" r="8"/><path d="M80,448H24A24.027,24.027,0,0,0,0,472v32a8,8,0,0,0,16,0V472a8.009,8.009,0,0,1,8-8H80a8.009,8.009,0,0,1,8,8v32a8,8,0,0,0,16,0V472A24.027,24.027,0,0,0,80,448Z"/><path d="M216,448H160a24.027,24.027,0,0,0-24,24v32a8,8,0,0,0,16,0V472a8.009,8.009,0,0,1,8-8h56a8.009,8.009,0,0,1,8,8v32a8,8,0,0,0,16,0V472A24.027,24.027,0,0,0,216,448Z"/><path d="M352,448H296a24.027,24.027,0,0,0-24,24v32a8,8,0,0,0,16,0V472a8.009,8.009,0,0,1,8-8h56a8.009,8.009,0,0,1,8,8v32a8,8,0,0,0,16,0V472A24.027,24.027,0,0,0,352,448Z"/><path d="M488,448H432a24.027,24.027,0,0,0-24,24v32a8,8,0,0,0,16,0V472a8.009,8.009,0,0,1,8-8h56a8.009,8.009,0,0,1,8,8v32a8,8,0,0,0,16,0V472A24.027,24.027,0,0,0,488,448Z"/><path d="M72,408v16a8,8,0,0,0,16,0V408a8.009,8.009,0,0,1,8-8h56a8.009,8.009,0,0,1,8,8v16a8,8,0,0,0,16,0V408a24.027,24.027,0,0,0-24-24H96A24.027,24.027,0,0,0,72,408Z"/><path d="M32,432a8,8,0,0,0,8-8V408a24.027,24.027,0,0,0-24-24,8,8,0,0,0,0,16,8.009,8.009,0,0,1,8,8v16A8,8,0,0,0,32,432Z"/><path d="M304,432a8,8,0,0,0,8-8V408a24.027,24.027,0,0,0-24-24H232a24.027,24.027,0,0,0-24,24v16a8,8,0,0,0,16,0V408a8.009,8.009,0,0,1,8-8h56a8.009,8.009,0,0,1,8,8v16A8,8,0,0,0,304,432Z"/><path d="M440,432a8,8,0,0,0,8-8V408a24.027,24.027,0,0,0-24-24H368a24.027,24.027,0,0,0-24,24v16a8,8,0,0,0,16,0V408a8.009,8.009,0,0,1,8-8h56a8.009,8.009,0,0,1,8,8v16A8,8,0,0,0,440,432Z"/><path d="M480,408v16a8,8,0,0,0,16,0V408a8.009,8.009,0,0,1,8-8,8,8,0,0,0,8-8C512,376.7,480,384.214,480,408Z"/><path d="M224,360a8,8,0,0,0,8,8c15.305,0,7.787-32-16-32H160c-23.759,0-31.355,32-16,32a8,8,0,0,0,8-8,8.009,8.009,0,0,1,8-8h56A8.009,8.009,0,0,1,224,360Z"/><path d="M80,336H24C.241,336-7.355,368,8,368a8,8,0,0,0,8-8,8.009,8.009,0,0,1,8-8H80a8.009,8.009,0,0,1,8,8,8,8,0,0,0,8,8C111.305,368,103.787,336,80,336Z"/><path d="M360,360a8,8,0,0,0,8,8c15.305,0,7.787-32-16-32H296c-23.759,0-31.355,32-16,32a8,8,0,0,0,8-8,8.009,8.009,0,0,1,8-8h56A8.009,8.009,0,0,1,360,360Z"/><path d="M488,336H432c-23.759,0-31.355,32-16,32a8,8,0,0,0,8-8,8.009,8.009,0,0,1,8-8h56a8.009,8.009,0,0,1,8,8,8,8,0,0,0,8,8C519.3,368,511.787,336,488,336Z"/><path d="M128,312a8,8,0,0,0,8,8H376a8,8,0,0,0,0-16H136A8,8,0,0,0,128,312Z"/><circle cx="104" cy="8" r="8"/><path d="M8,16H72A8,8,0,0,0,72,0H8A8,8,0,0,0,8,16Z"/></g></g></svg>
