<?xml version="1.0" encoding="iso-8859-1"?>
<!-- Generator: Adobe Illustrator 19.0.0, SVG Export Plug-In . SVG Version: 6.00 Build 0)  -->
<svg version="1.1" id="Capa_1" xmlns="http://www.w3.org/2000/svg" xmlns:xlink="http://www.w3.org/1999/xlink" x="0px" y="0px"
	 viewBox="0 0 512 512" style="enable-background:new 0 0 512 512;" xml:space="preserve">
<path style="fill:#303C42;" d="M506.104,129.126l-128-64c-3.104-1.562-6.833-1.5-9.875,0.177L256,126.522L143.771,65.304
	c-3.042-1.656-6.75-1.729-9.875-0.177l-128,64C2.292,130.939,0,134.626,0,138.668v170.667c0,3.979,2.208,7.615,5.729,9.458
	l245.333,128c1.542,0.802,3.25,1.208,4.938,1.208c1.813,0,3.625-0.458,5.25-1.385l245.333-138.667
	c3.354-1.885,5.417-5.438,5.417-9.281v-160C512,134.626,509.708,130.939,506.104,129.126z"/>
<polygon style="fill:#FFFFFF;" points="384,91.929 477.479,138.668 384,185.408 "/>
<path style="fill:#E53935;" d="M255.792,425.199L21.333,302.866V145.262l117.125-58.563l112.438,61.333
	c3.167,1.729,7.042,1.729,10.208,0l101.563-55.401v110.036c0,3.698,1.917,7.125,5.063,9.073c1.708,1.063,3.646,1.594,5.604,1.594
	c1.625,0,3.271-0.375,4.771-1.125l112.563-56.281v136.521L255.792,425.199z"/>
<path style="opacity:0.1;enable-background:new    ;" d="M291.823,390.999c-15.818,8.94-35.087,9.263-51.195,0.858L54.306,294.64
	c-14.132-7.374-24.251-20.651-27.615-36.23l-5.358-24.823v69.28l234.458,122.333l234.875-132.75v-13.836L291.823,390.999z"/>
<linearGradient id="SVGID_1_" gradientUnits="userSpaceOnUse" x1="-27.3696" y1="638.6531" x2="-22.5997" y2="633.8781" gradientTransform="matrix(21.3333 0 0 -21.3333 996.3334 13791.667)">
	<stop  offset="0" style="stop-color:#000000;stop-opacity:0.1"/>
	<stop  offset="1" style="stop-color:#000000;stop-opacity:0"/>
</linearGradient>
<path style="fill:url(#SVGID_1_);" d="M490.667,292.449V155.929L378.104,212.21c-1.5,0.75-3.146,1.125-4.771,1.125
	c-1.958,0-3.896-0.531-5.604-1.594l95.957,95.957L490.667,292.449z"/>
<linearGradient id="SVGID_2_" gradientUnits="userSpaceOnUse" x1="-46.2181" y1="641.1352" x2="-23.5463" y2="630.5647" gradientTransform="matrix(21.3333 0 0 -21.3333 996.3334 13791.667)">
	<stop  offset="0" style="stop-color:#FFFFFF;stop-opacity:0.2"/>
	<stop  offset="1" style="stop-color:#FFFFFF;stop-opacity:0"/>
</linearGradient>
<path style="fill:url(#SVGID_2_);" d="M506.104,129.126l-128-64c-3.104-1.562-6.833-1.5-9.875,0.177L256,126.522L143.771,65.304
	c-3.042-1.656-6.75-1.729-9.875-0.177l-128,64C2.292,130.939,0,134.626,0,138.668v170.667c0,3.979,2.208,7.615,5.729,9.458
	l245.333,128c1.542,0.802,3.25,1.208,4.938,1.208c1.813,0,3.625-0.458,5.25-1.385l245.333-138.667
	c3.354-1.885,5.417-5.438,5.417-9.281v-160C512,134.626,509.708,130.939,506.104,129.126z"/>
<g>
</g>
<g>
</g>
<g>
</g>
<g>
</g>
<g>
</g>
<g>
</g>
<g>
</g>
<g>
</g>
<g>
</g>
<g>
</g>
<g>
</g>
<g>
</g>
<g>
</g>
<g>
</g>
<g>
</g>
</svg>
